<svg width="26" height="26" viewBox="0 0 26 26" fill="none" xmlns="http://www.w3.org/2000/svg">
<path fill-rule="evenodd" clip-rule="evenodd" d="M13 26C5.82075 26 0 20.1793 0 13C0 5.82075 5.82075 0 13 0C20.1793 0 26 5.82075 26 13C26 20.1793 20.1793 26 13 26ZM17.5971 19.2205C17.1632 19.2205 16.7521 19.0499 16.4434 18.7444L13 15.2994L9.555 18.7444C8.92125 19.3781 7.88938 19.3781 7.25563 18.7444C6.62188 18.1106 6.62188 17.082 7.25563 16.4466L10.699 13L7.254 9.555C6.84125 9.14225 6.682 8.54425 6.8315 7.98363C6.98263 7.423 7.42138 6.98425 7.982 6.83475C8.54263 6.68362 9.14062 6.8445 9.55175 7.25725L13 10.7006L16.445 7.25563C16.8577 6.84288 17.4557 6.682 18.0164 6.83313C18.577 6.98263 19.0158 7.42138 19.1669 7.982C19.3164 8.54263 19.1571 9.14062 18.7444 9.55175L15.301 13L18.746 16.445C19.0548 16.7537 19.2237 17.1649 19.2237 17.5987C19.2237 18.0278 19.0515 18.4405 18.746 18.746C18.4405 19.0499 18.0278 19.2205 17.5971 19.2205H17.5939H17.5971Z" fill="#E95231"/>
</svg>
