<svg width="31" height="23" viewBox="0 0 31 23" fill="none" xmlns="http://www.w3.org/2000/svg">
<path fill-rule="evenodd" clip-rule="evenodd" d="M29.0625 23C30.132 23 31 22.1413 31 21.0833C31 20.0253 30.132 19.1667 29.0625 19.1667H17.4375C16.368 19.1667 15.5 20.0253 15.5 21.0833C15.5 22.1413 16.368 23 17.4375 23H29.0625ZM29.0625 13.4167C30.132 13.4167 31 12.558 31 11.5C31 10.442 30.132 9.58333 29.0625 9.58333H1.9375C0.868 9.58333 0 10.442 0 11.5C0 12.558 0.868 13.4167 1.9375 13.4167H29.0625ZM29.0625 3.83333C30.132 3.83333 31 2.97467 31 1.91667C31 0.858667 30.132 0 29.0625 0H9.6875C8.618 0 7.75 0.858667 7.75 1.91667C7.75 2.97467 8.618 3.83333 9.6875 3.83333H29.0625Z" fill="#111111"/>
</svg>
