<svg width="16" height="16" viewBox="0 0 16 16" fill="none" xmlns="http://www.w3.org/2000/svg">
<g clip-path="url(#clip0)">
<path fill-rule="evenodd" clip-rule="evenodd" d="M10.97 6C10.42 6 10.287 5.688 10.687 5.29L12.227 3.757C11.134 2.672 9.628 2 7.964 2C4.897 2 2.367 4.283 1.99 7.235C1.99 7.235 1.874 8 1.004 8C0.45 8 0 7.552 0 7C0 6.925 0.01 6.85 0.025 6.78C0.615 2.94 3.945 0 7.965 0C10.185 0 12.193 0.895 13.647 2.343L15.294 0.703C15.684 0.315 16 0.45 16 0.99V5.51C16 5.78 15.77 6 15.507 6H10.97ZM5.03 10C5.58 10 5.713 10.312 5.313 10.71L3.773 12.243C4.864 13.33 6.372 14 8.036 14C11.104 14 13.634 11.717 14.012 8.765C14.012 8.765 14.128 8 14.998 8C15.55 8 16 8.448 16 9C16 9.076 15.99 9.15 15.975 9.22C15.385 13.06 12.055 16 8.035 16C5.815 16 3.807 15.105 2.353 13.657L0.706 15.297C0.316 15.685 0 15.549 0 15.009V10.489C0 10.219 0.23 9.999 0.493 9.999H5.03V10Z" fill="#292929"/>
</g>
<defs>
<clipPath id="clip0">
<rect width="16" height="16" fill="white"/>
</clipPath>
</defs>
</svg>
