<svg width="26" height="26" viewBox="0 0 26 26" fill="none" xmlns="http://www.w3.org/2000/svg">
<path fill-rule="evenodd" clip-rule="evenodd" d="M13 26C20.1793 26 26 20.1793 26 13C26 5.82075 20.1793 0 13 0C5.82075 0 0 5.82075 0 13C0 20.1793 5.82075 26 13 26ZM11.375 17.875C12.025 17.875 12.6393 17.6182 13.0975 17.1551L19.0255 10.9265C19.6593 10.2846 19.6593 9.24788 19.0255 8.606C18.3918 7.96413 17.3615 7.96413 16.7277 8.606L11.375 14.2545L9.27387 11.856C8.64012 11.2141 7.6115 11.2141 6.97613 11.856C6.34238 12.4979 6.34238 13.5346 6.97613 14.1765L9.65088 17.1551C10.1108 17.6182 10.7201 17.875 11.3734 17.875H11.375Z" fill="#88C259"/>
</svg>
