<svg width="197" height="160" viewBox="0 0 197 160" fill="none" xmlns="http://www.w3.org/2000/svg">
<path d="M121.991 70.9749L83.8977 93.1633V137.54L121.991 159.729L160.085 137.54V93.1633L121.991 70.9749Z" fill="#FFC718"/>
<path d="M159.299 5.78398L121.598 27.9724V72.3494L159.299 94.5378L197 72.3494V27.9724L159.299 5.78398Z" fill="#FFC718"/>
<path d="M46.9824 70.9749L9.28162 93.1633V137.54L46.9824 159.729L84.6831 137.54V93.1633L46.9824 70.9749Z" fill="#FFC718"/>
<path d="M84.2903 5.78398L46.1969 27.9724V72.3494L84.2903 94.5378L122.384 72.3494V27.9724L84.2903 5.78398Z" fill="#FFC718"/>
<path d="M148.626 87.9376L111.956 66.7656L75.2865 87.9376V130.282L111.956 151.454L148.626 130.282V87.9376Z" stroke="#111111" stroke-width="4"/>
<path d="M185.489 23.4755L149.21 2.31533L112.931 23.4755V65.8313L149.21 86.9914L185.489 65.8313V23.4755Z" stroke="#111111" stroke-width="4"/>
<path d="M74.5581 88.7083L38.279 67.5481L1.99996 88.7083V131.064L38.279 152.224L74.5581 131.064V88.7083Z" stroke="#111111" stroke-width="4"/>
<path d="M112.056 23.4814L75.3865 2.30942L38.7168 23.4814V65.8254L75.3865 86.9973L112.056 65.8254V23.4814Z" stroke="#111111" stroke-width="4"/>
</svg>
